Artist: Korn
Album: The Path Of Totality (Special Edition)
Year of Release: 2011
Origin: United States of America (Bakersfield, California)
Genre: Alternative Metal/Dubstep
Album Type: Full Length
# of Tracks: 13
Playing Time: 44:36
File Size: 344 MB
Format: FLAC (Tracks/Cue/Log)

Track list:

01) Chaos Lives In Everything (feat. Skrillex) - 03:47
02) Kill Mercy Within (feat. Noisia) - 03:35
03) My Wall (feat. Excision) - 02:55
04) Narcissistic Cannibal (feat. Skrillex and Kill The Noise) - 03:11
05) Illuminati (feat. Excision and Downlink) - 03:17
06) Burn The Obedient (feat. Noisia) - 02:38
07) Sanctuary (feat. Downlink) - 03:24
08) Let\'s Go (feat. Noisia) - 02:41
09) Get Up! (feat. Skrillex) - 03:43
10) Way Too Far (feat. 12th Planet) - 03:49
11) Bleeding Out - (feat. Feed Me) - 04:50
12) Fuels The Comedy (feat. Kill The Noise) (Bonus Track) - 02:49
13) Tension (feat. Excision, Datsik and Downlink) (Bonus Track) - 03:57

Log:

Exact Audio Copy V0.99 prebeta 5 from 4. May 2009

EAC extraction logfile from 9. December 2011, 21:00

Korn / The Path Of Totality (Special Edition)

Used drive  : TSSTcorpDVD+-RW TS-L632D   Adapter: 2  ID: 0

Read mode               : Secure
Utilize accurate stream : Yes
Defeat audio cache      : No
Make use of C2 pointers : No

Read offset correction                      : 6
Overread into Lead-In and Lead-Out          : No
Fill up missing offset samples with silence : Yes
Delete leading and trailing silent blocks   : No
Null samples used in CRC calculations       : Yes
Used interface                              : Native Win32 interface for Win NT & 2000
Gap handling                                : Appended to previous track

Used output format : Internal WAV Routines
Sample format      : 44.100 Hz; 16 Bit; Stereo


TOC of the extracted CD

     Track |   Start  |  Length  | Start sector | End sector 
    ---------------------------------------------------------
        1  |  0:00.00 |  3:47.27 |         0    |    17051   
        2  |  3:47.27 |  3:35.12 |     17052    |    33188   
        3  |  7:22.39 |  2:55.19 |     33189    |    46332   
        4  | 10:17.58 |  3:10.53 |     46333    |    60635   
        5  | 13:28.36 |  3:16.46 |     60636    |    75381   
        6  | 16:45.07 |  2:38.24 |     75382    |    87255   
        7  | 19:23.31 |  3:24.09 |     87256    |   102564   
        8  | 22:47.40 |  2:40.39 |    102565    |   114603   
        9  | 25:28.04 |  3:42.48 |    114604    |   131301   
       10  | 29:10.52 |  3:49.08 |    131302    |   148484   
       11  | 32:59.60 |  4:49.48 |    148485    |   170207   
       12  | 37:49.33 |  2:49.18 |    170208    |   182900   
       13  | 40:38.51 |  3:56.60 |    182901    |   200660   


Track  1

     Filename C:\\EAC\\The Path Of Totality (Special Edition)\\01 - Chaos Lives In Everything (feat. Skrillex).wav

     Pre-gap length  0:00:02.00

     Peak level 100.0 %
     Track quality 100.0 %
     Test CRC 22B99BAF
     Copy CRC 22B99BAF
     Track not present in AccurateRip database
     Copy OK

Track  2

     Filename C:\\EAC\\The Path Of Totality (Special Edition)\\02 - Kill Mercy Within (feat. Noisia).wav

     Peak level 100.0 %
     Track quality 99.9 %
     Test CRC E9D22929
     Copy CRC E9D22929
     Track not present in AccurateRip database
     Copy OK

Track  3

     Filename C:\\EAC\\The Path Of Totality (Special Edition)\\03 - My Wall (feat. Excision).wav

     Peak level 100.0 %
     Track quality 100.0 %
     Test CRC B005D3F5
     Copy CRC B005D3F5
     Track not present in AccurateRip database
     Copy OK

Track  4

     Filename C:\\EAC\\The Path Of Totality (Special Edition)\\04 - Narcissistic Cannibal (feat. Skrillex and Kill The Noise).wav

     Peak level 100.0 %
     Track quality 100.0 %
     Test CRC EE332BF5
     Copy CRC EE332BF5
     Track not present in AccurateRip database
     Copy OK

Track  5

     Filename C:\\EAC\\The Path Of Totality (Special Edition)\\05 - Illuminati (feat. Excision and Downlink).wav

     Peak level 100.0 %
     Track quality 100.0 %
     Test CRC 622B3DB8
     Copy CRC 622B3DB8
     Track not present in AccurateRip database
     Copy OK

Track  6

     Filename C:\\EAC\\The Path Of Totality (Special Edition)\\06 - Burn The Obedient (feat. Noisia).wav

     Peak level 100.0 %
     Track quality 100.0 %
     Test CRC E28BD6D9
     Copy CRC E28BD6D9
     Track not present in AccurateRip database
     Copy OK

Track  7

     Filename C:\\EAC\\The Path Of Totality (Special Edition)\\07 - Sanctuary (feat. Downlink).wav

     Peak level 100.0 %
     Track quality 100.0 %
     Test CRC 05F9C059
     Copy CRC 05F9C059
     Track not present in AccurateRip database
     Copy OK

Track  8

     Filename C:\\EAC\\The Path Of Totality (Special Edition)\\08 - Let\'s Go (feat. Noisia).wav

     Peak level 100.0 %
     Track quality 100.0 %
     Test CRC E6C7D5A5
     Copy CRC E6C7D5A5
     Track not present in AccurateRip database
     Copy OK

Track  9

     Filename C:\\EAC\\The Path Of Totality (Special Edition)\\09 - Get Up! (feat. Skrillex).wav

     Peak level 100.0 %
     Track quality 100.0 %
     Test CRC 5277F93E
     Copy CRC 5277F93E
     Track not present in AccurateRip database
     Copy OK

Track 10

     Filename C:\\EAC\\The Path Of Totality (Special Edition)\\10 - Way Too Far (feat. 12th Planet).wav

     Peak level 100.0 %
     Track quality 99.9 %
     Test CRC 2E3AB05F
     Copy CRC 2E3AB05F
     Track not present in AccurateRip database
     Copy OK

Track 11

     Filename C:\\EAC\\The Path Of Totality (Special Edition)\\11 - Bleeding Out (feat. Feed Me).wav

     Peak level 100.0 %
     Track quality 100.0 %
     Test CRC B71A4523
     Copy CRC B71A4523
     Track not present in AccurateRip database
     Copy OK

Track 12

     Filename C:\\EAC\\The Path Of Totality (Special Edition)\\12 - Fuels The Comedy (feat. Kill The Noise) (Bonus Track).wav

     Peak level 100.0 %
     Track quality 100.0 %
     Test CRC B5A07698
     Copy CRC B5A07698
     Track not present in AccurateRip database
     Copy OK

Track 13

     Filename C:\\EAC\\The Path Of Totality (Special Edition)\\13 - Tension (feat. Excision, Datsik and Downlink) (Bonus Track).wav

     Peak level 100.0 %
     Track quality 99.9 %
     Test CRC 8E0D8D95
     Copy CRC 8E0D8D95
     Track not present in AccurateRip database
     Copy OK


None of the tracks are present in the AccurateRip database

No errors occurred

End of status report

----------------------------

ENJOY!!! KORN FOREVER!!! :-)